<svg width="31" height="16" viewBox="0 0 31 16" fill="none" xmlns="http://www.w3.org/2000/svg">
<path d="M0.96721 12.2062C0.82861 11.9896 0.64381 11.6435 0.529668 11.3872C-0.136157 9.88672 -0.166051 8.33336 0.393786 6.8434C1.01069 5.20814 2.19015 3.95858 3.71476 3.31927C5.6307 2.51881 7.74776 2.67468 9.58489 3.73403C10.7508 4.3839 11.5769 5.38778 12.2047 6.80905C12.2835 6.99134 12.3542 7.18419 12.4248 7.35062L0.96721 12.2062ZM4.79367 5.73121C3.43212 6.29919 2.73097 7.54083 2.87772 8.9938L8.63915 6.58186C7.6472 5.45118 6.35904 5.07605 4.79367 5.73121ZM9.35661 10.9778C9.35389 10.9778 9.35389 10.9804 9.35389 10.9804L9.23431 10.9012C8.88917 11.4427 8.35379 11.8839 7.6771 12.1692C6.38893 12.7134 5.19588 12.5734 4.3371 11.8416L4.25829 11.9579C4.25829 11.9579 4.25829 11.9552 4.25557 11.9552L2.79347 14.0819C3.15764 14.3275 3.54626 14.5336 3.95391 14.7C5.5682 15.3526 7.22053 15.3209 8.84841 14.634C10.0251 14.1373 10.9492 13.3818 11.5796 12.4228L9.35661 10.9778ZM16.4279 0.191406V12.0107L18.3194 12.7557L17.246 15.1914L15.1588 14.346C14.6914 14.1479 14.3707 13.8467 14.1315 13.506C13.9005 13.1599 13.7293 12.6817 13.7293 12.0424V0.191406H16.4279ZM21.3252 9.00173C21.3252 7.99521 21.7844 7.09172 22.5073 6.47883L20.5669 4.37598C19.2516 5.50666 18.4227 7.15777 18.4227 8.99644C18.42 10.8378 19.2489 12.4915 20.5615 13.6222L22.4992 11.5193C21.779 10.9038 21.3252 10.0056 21.3252 9.00173ZM24.7711 12.3541C24.3907 12.3541 24.0211 12.2907 23.6786 12.1798L22.7519 14.8559C23.3851 15.062 24.0618 15.1756 24.7684 15.1756C27.8394 15.1782 30.4021 13.0595 30.9973 10.246L28.1492 9.68066C27.8258 11.2103 26.4371 12.3568 24.7711 12.3541ZM24.7793 2.8279C24.0754 2.8279 23.3987 2.93885 22.7655 3.14227L23.6841 5.82103C24.0292 5.71007 24.3961 5.64931 24.7766 5.64931C26.4452 5.65196 27.8366 6.80377 28.1519 8.336L31 7.77594C30.4157 4.95717 27.853 2.83054 24.7793 2.8279Z" fill="white"/>
</svg>
